<svg width="980" height="300" viewBox="0 0 980 300" fill="none" xmlns="http://www.w3.org/2000/svg">
<g filter="url(#filter0_d_214_164)">
<path d="M736.318 290.374C736.318 284.791 740.842 280.258 746.415 280.258C751.989 280.258 756.513 284.791 756.513 290.374C756.513 290.785 756.48 291.195 756.431 291.606L976 291.442V287.139C975.639 287.172 975.262 287.205 974.885 287.205C969.46 287.205 965.05 282.787 965.05 277.352C965.05 271.916 969.46 267.498 974.885 267.498C975.262 267.498 975.623 267.531 975.984 267.564L975.967 254.295C975.607 254.344 975.246 254.361 974.869 254.361C969.443 254.361 965.034 249.943 965.034 244.508C965.034 239.072 969.443 234.654 974.869 234.654C975.23 234.654 975.59 234.687 975.951 234.72L975.935 221.467C975.59 221.5 975.23 221.533 974.869 221.533C969.443 221.533 965.034 217.116 965.034 211.68C965.034 206.244 969.443 201.827 974.869 201.827C975.23 201.827 975.574 201.843 975.918 201.892L975.902 188.64C975.557 188.673 975.213 188.689 974.853 188.689C969.427 188.689 965.017 184.272 965.017 178.836C965.017 173.4 969.427 168.983 974.853 168.983C975.197 168.983 975.541 168.999 975.885 169.032L975.869 155.779C975.525 155.812 975.197 155.829 974.853 155.829C969.427 155.829 965.017 151.411 965.017 145.975C965.017 140.54 969.427 136.122 974.853 136.122C975.197 136.122 975.525 136.139 975.852 136.171L975.836 122.935C975.508 122.968 975.18 122.985 974.836 122.985C969.41 122.985 965.001 118.567 965.001 113.131C965.001 107.696 969.41 103.278 974.836 103.278C975.164 103.278 975.492 103.295 975.82 103.327L975.803 90.0912C975.492 90.1241 975.164 90.1405 974.836 90.1405C969.41 90.1405 965.001 85.723 965.001 80.2873C965.001 74.8516 969.41 70.4341 974.836 70.4341C975.164 70.4341 975.476 70.4505 975.787 70.4833L975.771 57.2472C975.459 57.28 975.148 57.2964 974.82 57.2964C969.394 57.2964 964.985 52.8789 964.985 47.4432C964.985 42.0075 969.394 37.59 974.82 37.59C975.131 37.59 975.443 37.6064 975.754 37.6393L975.738 24.4031C975.426 24.436 975.131 24.4524 974.82 24.4524C969.394 24.4524 964.985 20.0349 964.985 14.5992C964.985 9.16349 969.394 4.74597 974.82 4.74597C975.131 4.74597 975.426 4.76239 975.721 4.79523V0L756.464 0.164221C756.48 0.410551 756.496 0.656882 756.496 0.919634C756.496 6.50312 751.972 11.0356 746.399 11.0356C740.826 11.0356 736.302 6.50312 736.302 0.919634C736.302 0.673304 736.318 0.426974 736.334 0.180643L329 0.479048L4 0.509083V4.74597C4.01639 4.74597 4.03278 4.74597 4.04918 4.74597C9.47489 4.74597 13.8843 9.16349 13.8843 14.5992C13.8843 20.0349 9.47489 24.4524 4.04918 24.4524C4.03278 24.4524 4.03278 24.4524 4.01639 24.4524L4.03278 37.59H4.04918C9.47489 37.59 13.8843 42.0075 13.8843 47.4432C13.8843 52.8789 9.47489 57.2964 4.04918 57.2964L4.06557 70.4341C9.49128 70.4341 13.9007 74.8516 13.9007 80.2873C13.9007 85.723 9.50767 90.1241 4.08196 90.1405L4.09835 103.278C9.52406 103.295 13.9007 107.696 13.9007 113.131C13.9007 118.567 9.52406 122.952 4.11474 122.985L4.13113 136.122C9.54046 136.155 13.9171 140.556 13.9171 145.975C13.9171 151.395 9.55685 155.796 4.14753 155.829L4.16392 168.966C9.55685 169.015 13.9171 173.4 13.9171 178.819C13.9171 184.222 9.55685 188.623 4.18031 188.673L4.1967 201.827C9.58963 201.876 13.9335 206.277 13.9335 211.68C13.9335 217.083 9.58963 221.467 4.21309 221.533V234.687C9.58963 234.753 13.9171 239.137 13.9171 244.54C13.9171 249.943 9.58963 254.311 4.22949 254.394L4.24588 267.548C9.60602 267.63 13.9335 271.998 13.9335 277.384C13.9335 282.771 9.62242 287.139 4.26227 287.238V292L324.5 291.973L736.449 291.672C736.351 291.212 736.318 290.801 736.318 290.374Z" fill="url(#paint0_linear_214_164)" fill-opacity="0.76" shape-rendering="crispEdges"/>
</g>
<line x1="746" y1="26" x2="746" y2="266" stroke="#D3D3D3" stroke-width="2" stroke-dasharray="8 8"/>
<defs>
<filter id="filter0_d_214_164" x="0" y="0" width="980" height="300" filterUnits="userSpaceOnUse" color-interpolation-filters="sRGB">
<feFlood flood-opacity="0" result="BackgroundImageFix"/>
<feColorMatrix in="SourceAlpha" type="matrix" values="0 0 0 0 0 0 0 0 0 0 0 0 0 0 0 0 0 0 127 0" result="hardAlpha"/>
<feOffset dy="4"/>
<feGaussianBlur stdDeviation="2"/>
<feComposite in2="hardAlpha" operator="out"/>
<feColorMatrix type="matrix" values="0 0 0 0 0.905882 0 0 0 0 0.937255 0 0 0 0 0.992157 0 0 0 0.81 0"/>
<feBlend mode="normal" in2="BackgroundImageFix" result="effect1_dropShadow_214_164"/>
<feBlend mode="normal" in="SourceGraphic" in2="effect1_dropShadow_214_164" result="shape"/>
</filter>
<linearGradient id="paint0_linear_214_164" x1="63.5" y1="-11.5" x2="963.5" y2="298" gradientUnits="userSpaceOnUse">
<stop stop-color="#E0EAFC"/>
<stop offset="1" stop-color="#CFDEF3" stop-opacity="0.42"/>
</linearGradient>
</defs>
</svg>
