<svg width="11" height="19" viewBox="0 0 11 19" fill="none" xmlns="http://www.w3.org/2000/svg">
<path d="M7.50788 9.4707C6.85446 8.82555 6.21624 8.20344 5.59321 7.57365C3.89888 5.86861 2.21214 4.15589 0.51781 2.45085C0.175904 2.10523 -0.0444349 1.72122 0.0163483 1.22199C0.0847295 0.669006 0.381048 0.269627 0.905303 0.0852985C1.44475 -0.10671 1.93102 0.031536 2.33371 0.438597C3.4658 1.57529 4.59029 2.71966 5.71478 3.85636C7.18117 5.33867 8.64757 6.82865 10.1216 8.30328C10.9649 9.1558 10.9573 9.83936 10.114 10.6996C7.59906 13.2494 5.08415 15.7916 2.57684 18.3338C2.20455 18.7102 1.83225 19.0481 1.27 18.9943C0.722954 18.9483 0.320265 18.6641 0.107524 18.1418C-0.105217 17.5965 0.00115322 17.105 0.396244 16.6902C1.01167 16.0451 1.6423 15.423 2.27293 14.7855C3.94447 13.0958 5.6236 11.4061 7.29514 9.71647C7.34833 9.66271 7.40151 9.60127 7.50788 9.4707Z" fill="#212945"/>
</svg>
