<svg width="444" height="413" viewBox="0 0 444 413" fill="none" xmlns="http://www.w3.org/2000/svg">
<g filter="url(#filter0_d_254_896)">
<rect x="41" y="33" width="374" height="332" rx="22" fill="white"/>
</g>
<path d="M108.881 274.344V272.455H120.138V274.344H115.599V287H113.412V274.344H108.881ZM121.322 287V276.091H123.375V277.824H123.488C123.687 277.237 124.038 276.775 124.539 276.439C125.046 276.098 125.619 275.928 126.258 275.928C126.391 275.928 126.547 275.932 126.727 275.942C126.912 275.951 127.056 275.963 127.16 275.977V278.009C127.075 277.985 126.923 277.959 126.706 277.93C126.488 277.897 126.27 277.881 126.052 277.881C125.55 277.881 125.103 277.987 124.71 278.2C124.322 278.409 124.014 278.7 123.787 279.074C123.559 279.443 123.446 279.865 123.446 280.338V287H121.322ZM132.075 287.241C131.384 287.241 130.759 287.114 130.2 286.858C129.641 286.598 129.199 286.221 128.872 285.729C128.55 285.236 128.389 284.633 128.389 283.918C128.389 283.302 128.507 282.795 128.744 282.398C128.981 282 129.3 281.685 129.703 281.453C130.105 281.221 130.555 281.046 131.052 280.928C131.549 280.809 132.056 280.719 132.572 280.658C133.225 280.582 133.756 280.52 134.163 280.473C134.57 280.421 134.866 280.338 135.051 280.224C135.235 280.111 135.328 279.926 135.328 279.67V279.621C135.328 279 135.153 278.52 134.802 278.179C134.457 277.838 133.94 277.668 133.254 277.668C132.539 277.668 131.975 277.826 131.564 278.143C131.156 278.456 130.875 278.804 130.718 279.188L128.723 278.733C128.959 278.07 129.305 277.535 129.76 277.128C130.219 276.716 130.747 276.418 131.343 276.233C131.94 276.044 132.567 275.949 133.225 275.949C133.661 275.949 134.123 276.001 134.61 276.105C135.103 276.205 135.562 276.389 135.988 276.659C136.419 276.929 136.772 277.315 137.047 277.817C137.321 278.314 137.458 278.96 137.458 279.756V287H135.385V285.509H135.299C135.162 285.783 134.956 286.053 134.681 286.318C134.407 286.583 134.054 286.804 133.623 286.979C133.192 287.154 132.676 287.241 132.075 287.241ZM132.537 285.537C133.124 285.537 133.626 285.421 134.042 285.189C134.464 284.957 134.783 284.654 135.001 284.28C135.224 283.901 135.335 283.496 135.335 283.065V281.659C135.259 281.735 135.112 281.806 134.895 281.872C134.681 281.934 134.438 281.988 134.163 282.036C133.888 282.078 133.621 282.118 133.36 282.156C133.1 282.189 132.882 282.218 132.707 282.241C132.295 282.294 131.919 282.381 131.578 282.504C131.242 282.627 130.972 282.805 130.768 283.037C130.569 283.264 130.47 283.567 130.47 283.946C130.47 284.472 130.664 284.869 131.052 285.139C131.44 285.404 131.935 285.537 132.537 285.537ZM142.411 280.523V287H140.287V276.091H142.325V277.866H142.46C142.711 277.289 143.104 276.825 143.639 276.474C144.179 276.124 144.858 275.949 145.678 275.949C146.421 275.949 147.072 276.105 147.631 276.418C148.189 276.725 148.623 277.185 148.93 277.795C149.238 278.406 149.392 279.161 149.392 280.061V287H147.268V280.317C147.268 279.526 147.063 278.908 146.651 278.463C146.239 278.013 145.673 277.788 144.953 277.788C144.461 277.788 144.023 277.895 143.639 278.108C143.26 278.321 142.96 278.634 142.737 279.045C142.519 279.453 142.411 279.945 142.411 280.523ZM160.415 278.754L158.49 279.095C158.41 278.849 158.282 278.615 158.107 278.392C157.936 278.17 157.704 277.987 157.411 277.845C157.117 277.703 156.75 277.632 156.31 277.632C155.708 277.632 155.206 277.767 154.804 278.037C154.402 278.302 154.2 278.645 154.2 279.067C154.2 279.431 154.335 279.725 154.605 279.947C154.875 280.17 155.311 280.352 155.912 280.494L157.645 280.892C158.649 281.124 159.397 281.482 159.889 281.964C160.382 282.447 160.628 283.075 160.628 283.847C160.628 284.5 160.438 285.082 160.06 285.594C159.686 286.1 159.162 286.498 158.49 286.787C157.822 287.076 157.048 287.22 156.168 287.22C154.946 287.22 153.949 286.96 153.178 286.439C152.406 285.913 151.932 285.168 151.757 284.202L153.81 283.889C153.938 284.424 154.2 284.829 154.598 285.104C154.996 285.374 155.514 285.509 156.153 285.509C156.849 285.509 157.406 285.364 157.822 285.075C158.239 284.782 158.447 284.424 158.447 284.003C158.447 283.662 158.32 283.375 158.064 283.143C157.813 282.911 157.427 282.736 156.906 282.618L155.06 282.213C154.042 281.981 153.289 281.612 152.801 281.105C152.318 280.598 152.077 279.957 152.077 279.18C152.077 278.536 152.257 277.973 152.616 277.49C152.976 277.007 153.473 276.631 154.108 276.361C154.742 276.086 155.469 275.949 156.288 275.949C157.467 275.949 158.395 276.205 159.072 276.716C159.75 277.223 160.197 277.902 160.415 278.754ZM166.137 287.241C165.446 287.241 164.821 287.114 164.262 286.858C163.704 286.598 163.261 286.221 162.934 285.729C162.612 285.236 162.451 284.633 162.451 283.918C162.451 283.302 162.57 282.795 162.806 282.398C163.043 282 163.363 281.685 163.765 281.453C164.168 281.221 164.618 281.046 165.115 280.928C165.612 280.809 166.118 280.719 166.635 280.658C167.288 280.582 167.818 280.52 168.225 280.473C168.633 280.421 168.929 280.338 169.113 280.224C169.298 280.111 169.39 279.926 169.39 279.67V279.621C169.39 279 169.215 278.52 168.865 278.179C168.519 277.838 168.003 277.668 167.316 277.668C166.601 277.668 166.038 277.826 165.626 278.143C165.219 278.456 164.937 278.804 164.781 279.188L162.785 278.733C163.022 278.07 163.368 277.535 163.822 277.128C164.281 276.716 164.809 276.418 165.406 276.233C166.002 276.044 166.63 275.949 167.288 275.949C167.724 275.949 168.185 276.001 168.673 276.105C169.165 276.205 169.625 276.389 170.051 276.659C170.482 276.929 170.834 277.315 171.109 277.817C171.384 278.314 171.521 278.96 171.521 279.756V287H169.447V285.509H169.362C169.225 285.783 169.019 286.053 168.744 286.318C168.469 286.583 168.117 286.804 167.686 286.979C167.255 287.154 166.739 287.241 166.137 287.241ZM166.599 285.537C167.186 285.537 167.688 285.421 168.105 285.189C168.526 284.957 168.846 284.654 169.064 284.28C169.286 283.901 169.397 283.496 169.397 283.065V281.659C169.322 281.735 169.175 281.806 168.957 281.872C168.744 281.934 168.5 281.988 168.225 282.036C167.951 282.078 167.683 282.118 167.423 282.156C167.163 282.189 166.945 282.218 166.77 282.241C166.358 282.294 165.981 282.381 165.64 282.504C165.304 282.627 165.034 282.805 164.831 283.037C164.632 283.264 164.532 283.567 164.532 283.946C164.532 284.472 164.726 284.869 165.115 285.139C165.503 285.404 165.998 285.537 166.599 285.537ZM178.945 287.22C177.889 287.22 176.98 286.981 176.217 286.503C175.46 286.02 174.877 285.355 174.47 284.507C174.063 283.66 173.859 282.689 173.859 281.595C173.859 280.487 174.068 279.509 174.484 278.662C174.901 277.81 175.488 277.144 176.246 276.666C177.003 276.188 177.896 275.949 178.923 275.949C179.752 275.949 180.491 276.103 181.139 276.411C181.788 276.714 182.311 277.14 182.709 277.689C183.111 278.238 183.35 278.88 183.426 279.614H181.359C181.246 279.102 180.985 278.662 180.578 278.293C180.176 277.923 179.636 277.739 178.959 277.739C178.367 277.739 177.848 277.895 177.403 278.207C176.963 278.515 176.62 278.955 176.374 279.528C176.127 280.097 176.004 280.769 176.004 281.545C176.004 282.341 176.125 283.027 176.366 283.605C176.608 284.183 176.949 284.63 177.389 284.947C177.834 285.265 178.357 285.423 178.959 285.423C179.361 285.423 179.726 285.35 180.053 285.203C180.384 285.052 180.661 284.836 180.884 284.557C181.111 284.277 181.269 283.941 181.359 283.548H183.426C183.35 284.254 183.121 284.884 182.737 285.438C182.354 285.991 181.84 286.427 181.196 286.744C180.557 287.062 179.806 287.22 178.945 287.22ZM190.789 276.091V277.795H184.831V276.091H190.789ZM186.429 273.477H188.552V283.797C188.552 284.209 188.614 284.519 188.737 284.727C188.86 284.931 189.019 285.071 189.213 285.146C189.412 285.217 189.627 285.253 189.859 285.253C190.029 285.253 190.179 285.241 190.306 285.217C190.434 285.194 190.534 285.175 190.605 285.161L190.988 286.915C190.865 286.962 190.69 287.009 190.463 287.057C190.235 287.109 189.951 287.137 189.61 287.142C189.052 287.152 188.531 287.052 188.048 286.844C187.565 286.635 187.174 286.313 186.876 285.878C186.578 285.442 186.429 284.895 186.429 284.237V273.477ZM193.138 287V276.091H195.262V287H193.138ZM194.211 274.408C193.842 274.408 193.524 274.285 193.259 274.038C192.999 273.787 192.869 273.489 192.869 273.143C192.869 272.793 192.999 272.495 193.259 272.249C193.524 271.998 193.842 271.872 194.211 271.872C194.58 271.872 194.895 271.998 195.156 272.249C195.421 272.495 195.553 272.793 195.553 273.143C195.553 273.489 195.421 273.787 195.156 274.038C194.895 274.285 194.58 274.408 194.211 274.408ZM202.714 287.22C201.691 287.22 200.799 286.986 200.037 286.517C199.274 286.048 198.682 285.393 198.261 284.55C197.84 283.707 197.629 282.722 197.629 281.595C197.629 280.464 197.84 279.474 198.261 278.626C198.682 277.779 199.274 277.121 200.037 276.652C200.799 276.183 201.691 275.949 202.714 275.949C203.737 275.949 204.629 276.183 205.392 276.652C206.154 277.121 206.746 277.779 207.167 278.626C207.589 279.474 207.799 280.464 207.799 281.595C207.799 282.722 207.589 283.707 207.167 284.55C206.746 285.393 206.154 286.048 205.392 286.517C204.629 286.986 203.737 287.22 202.714 287.22ZM202.721 285.438C203.384 285.438 203.933 285.262 204.369 284.912C204.805 284.562 205.127 284.095 205.335 283.513C205.548 282.93 205.654 282.289 205.654 281.588C205.654 280.892 205.548 280.253 205.335 279.67C205.127 279.083 204.805 278.612 204.369 278.257C203.933 277.902 203.384 277.724 202.721 277.724C202.054 277.724 201.5 277.902 201.059 278.257C200.624 278.612 200.299 279.083 200.086 279.67C199.878 280.253 199.774 280.892 199.774 281.588C199.774 282.289 199.878 282.93 200.086 283.513C200.299 284.095 200.624 284.562 201.059 284.912C201.5 285.262 202.054 285.438 202.721 285.438ZM212.293 280.523V287H210.17V276.091H212.208V277.866H212.343C212.594 277.289 212.987 276.825 213.522 276.474C214.062 276.124 214.741 275.949 215.56 275.949C216.304 275.949 216.955 276.105 217.513 276.418C218.072 276.725 218.505 277.185 218.813 277.795C219.121 278.406 219.275 279.161 219.275 280.061V287H217.151V280.317C217.151 279.526 216.945 278.908 216.533 278.463C216.121 278.013 215.556 277.788 214.836 277.788C214.344 277.788 213.906 277.895 213.522 278.108C213.143 278.321 212.843 278.634 212.62 279.045C212.402 279.453 212.293 279.945 212.293 280.523ZM235.52 276.276C235.444 275.603 235.131 275.082 234.582 274.713C234.033 274.339 233.342 274.152 232.508 274.152C231.912 274.152 231.395 274.247 230.96 274.436C230.524 274.621 230.186 274.876 229.944 275.203C229.708 275.525 229.589 275.892 229.589 276.304C229.589 276.65 229.67 276.948 229.831 277.199C229.996 277.45 230.212 277.661 230.477 277.831C230.747 277.997 231.036 278.136 231.343 278.25C231.651 278.359 231.947 278.449 232.231 278.52L233.652 278.889C234.116 279.003 234.592 279.157 235.079 279.351C235.567 279.545 236.019 279.801 236.436 280.118C236.852 280.435 237.189 280.828 237.444 281.297C237.705 281.766 237.835 282.327 237.835 282.98C237.835 283.804 237.622 284.536 237.196 285.175C236.774 285.814 236.161 286.318 235.356 286.688C234.556 287.057 233.588 287.241 232.451 287.241C231.362 287.241 230.42 287.069 229.625 286.723C228.829 286.377 228.207 285.887 227.757 285.253C227.307 284.614 227.058 283.856 227.011 282.98H229.213C229.255 283.506 229.426 283.944 229.724 284.294C230.027 284.64 230.413 284.898 230.882 285.068C231.355 285.234 231.874 285.317 232.437 285.317C233.057 285.317 233.609 285.22 234.092 285.026C234.58 284.827 234.963 284.552 235.243 284.202C235.522 283.847 235.662 283.432 235.662 282.959C235.662 282.528 235.538 282.175 235.292 281.901C235.051 281.626 234.722 281.399 234.305 281.219C233.893 281.039 233.427 280.88 232.906 280.743L231.187 280.274C230.022 279.957 229.099 279.491 228.417 278.875C227.74 278.259 227.402 277.445 227.402 276.432C227.402 275.594 227.629 274.862 228.083 274.237C228.538 273.612 229.154 273.127 229.93 272.781C230.707 272.431 231.583 272.256 232.558 272.256C233.543 272.256 234.412 272.429 235.164 272.774C235.922 273.12 236.519 273.596 236.954 274.202C237.39 274.803 237.617 275.494 237.636 276.276H235.52ZM247.197 282.476V276.091H249.328V287H247.24V285.111H247.126C246.875 285.693 246.473 286.179 245.919 286.567C245.37 286.95 244.686 287.142 243.866 287.142C243.166 287.142 242.545 286.988 242.006 286.68C241.471 286.368 241.049 285.906 240.741 285.295C240.438 284.685 240.287 283.929 240.287 283.03V276.091H242.411V282.774C242.411 283.518 242.616 284.109 243.028 284.55C243.44 284.99 243.975 285.21 244.634 285.21C245.031 285.21 245.427 285.111 245.82 284.912C246.217 284.713 246.546 284.412 246.807 284.01C247.072 283.607 247.202 283.096 247.197 282.476ZM256.777 287.22C255.721 287.22 254.812 286.981 254.049 286.503C253.292 286.02 252.709 285.355 252.302 284.507C251.895 283.66 251.691 282.689 251.691 281.595C251.691 280.487 251.9 279.509 252.316 278.662C252.733 277.81 253.32 277.144 254.078 276.666C254.835 276.188 255.728 275.949 256.755 275.949C257.584 275.949 258.323 276.103 258.971 276.411C259.62 276.714 260.143 277.14 260.541 277.689C260.943 278.238 261.182 278.88 261.258 279.614H259.191C259.078 279.102 258.817 278.662 258.41 278.293C258.008 277.923 257.468 277.739 256.791 277.739C256.199 277.739 255.681 277.895 255.235 278.207C254.795 278.515 254.452 278.955 254.206 279.528C253.959 280.097 253.836 280.769 253.836 281.545C253.836 282.341 253.957 283.027 254.199 283.605C254.44 284.183 254.781 284.63 255.221 284.947C255.666 285.265 256.19 285.423 256.791 285.423C257.193 285.423 257.558 285.35 257.885 285.203C258.216 285.052 258.493 284.836 258.716 284.557C258.943 284.277 259.101 283.941 259.191 283.548H261.258C261.182 284.254 260.953 284.884 260.569 285.438C260.186 285.991 259.672 286.427 259.028 286.744C258.389 287.062 257.638 287.22 256.777 287.22ZM268.124 287.22C267.068 287.22 266.159 286.981 265.397 286.503C264.639 286.02 264.057 285.355 263.65 284.507C263.243 283.66 263.039 282.689 263.039 281.595C263.039 280.487 263.247 279.509 263.664 278.662C264.081 277.81 264.668 277.144 265.425 276.666C266.183 276.188 267.076 275.949 268.103 275.949C268.932 275.949 269.67 276.103 270.319 276.411C270.968 276.714 271.491 277.14 271.888 277.689C272.291 278.238 272.53 278.88 272.606 279.614H270.539C270.425 279.102 270.165 278.662 269.758 278.293C269.355 277.923 268.816 277.739 268.138 277.739C267.547 277.739 267.028 277.895 266.583 278.207C266.143 278.515 265.799 278.955 265.553 279.528C265.307 280.097 265.184 280.769 265.184 281.545C265.184 282.341 265.305 283.027 265.546 283.605C265.788 284.183 266.129 284.63 266.569 284.947C267.014 285.265 267.537 285.423 268.138 285.423C268.541 285.423 268.906 285.35 269.232 285.203C269.564 285.052 269.841 284.836 270.063 284.557C270.29 284.277 270.449 283.941 270.539 283.548H272.606C272.53 284.254 272.3 284.884 271.917 285.438C271.533 285.991 271.02 286.427 270.376 286.744C269.737 287.062 268.986 287.22 268.124 287.22ZM279.578 287.22C278.504 287.22 277.578 286.991 276.801 286.531C276.03 286.067 275.433 285.416 275.012 284.578C274.595 283.735 274.387 282.748 274.387 281.616C274.387 280.499 274.595 279.514 275.012 278.662C275.433 277.81 276.02 277.144 276.773 276.666C277.531 276.188 278.416 275.949 279.429 275.949C280.045 275.949 280.641 276.051 281.219 276.254C281.797 276.458 282.315 276.777 282.775 277.213C283.234 277.649 283.596 278.214 283.861 278.911C284.126 279.602 284.259 280.442 284.259 281.432V282.185H275.587V280.594H282.178C282.178 280.035 282.064 279.54 281.837 279.109C281.61 278.674 281.29 278.33 280.878 278.08C280.471 277.829 279.993 277.703 279.444 277.703C278.847 277.703 278.326 277.85 277.881 278.143C277.441 278.432 277.1 278.811 276.858 279.28C276.622 279.744 276.503 280.248 276.503 280.793V282.036C276.503 282.765 276.631 283.385 276.887 283.896C277.147 284.408 277.509 284.798 277.973 285.068C278.437 285.333 278.98 285.466 279.6 285.466C280.002 285.466 280.369 285.409 280.701 285.295C281.032 285.177 281.319 285.002 281.56 284.77C281.801 284.538 281.986 284.251 282.114 283.911L284.124 284.273C283.963 284.865 283.674 285.383 283.257 285.828C282.846 286.268 282.327 286.612 281.702 286.858C281.082 287.099 280.374 287.22 279.578 287.22ZM294.79 278.754L292.865 279.095C292.785 278.849 292.657 278.615 292.482 278.392C292.311 278.17 292.079 277.987 291.786 277.845C291.492 277.703 291.125 277.632 290.685 277.632C290.083 277.632 289.581 277.767 289.179 278.037C288.777 278.302 288.575 278.645 288.575 279.067C288.575 279.431 288.71 279.725 288.98 279.947C289.25 280.17 289.686 280.352 290.287 280.494L292.02 280.892C293.024 281.124 293.772 281.482 294.264 281.964C294.757 282.447 295.003 283.075 295.003 283.847C295.003 284.5 294.813 285.082 294.435 285.594C294.061 286.1 293.537 286.498 292.865 286.787C292.197 287.076 291.423 287.22 290.543 287.22C289.321 287.22 288.324 286.96 287.553 286.439C286.781 285.913 286.307 285.168 286.132 284.202L288.185 283.889C288.313 284.424 288.575 284.829 288.973 285.104C289.371 285.374 289.889 285.509 290.528 285.509C291.224 285.509 291.781 285.364 292.197 285.075C292.614 284.782 292.822 284.424 292.822 284.003C292.822 283.662 292.695 283.375 292.439 283.143C292.188 282.911 291.802 282.736 291.281 282.618L289.435 282.213C288.417 281.981 287.664 281.612 287.176 281.105C286.693 280.598 286.452 279.957 286.452 279.18C286.452 278.536 286.632 277.973 286.991 277.49C287.351 277.007 287.848 276.631 288.483 276.361C289.117 276.086 289.844 275.949 290.663 275.949C291.842 275.949 292.77 276.205 293.447 276.716C294.125 277.223 294.572 277.902 294.79 278.754ZM305.512 278.754L303.588 279.095C303.507 278.849 303.379 278.615 303.204 278.392C303.034 278.17 302.802 277.987 302.508 277.845C302.215 277.703 301.848 277.632 301.407 277.632C300.806 277.632 300.304 277.767 299.902 278.037C299.499 278.302 299.298 278.645 299.298 279.067C299.298 279.431 299.433 279.725 299.703 279.947C299.973 280.17 300.408 280.352 301.01 280.494L302.743 280.892C303.746 281.124 304.494 281.482 304.987 281.964C305.479 282.447 305.725 283.075 305.725 283.847C305.725 284.5 305.536 285.082 305.157 285.594C304.783 286.1 304.26 286.498 303.588 286.787C302.92 287.076 302.146 287.22 301.265 287.22C300.044 287.22 299.047 286.96 298.275 286.439C297.503 285.913 297.03 285.168 296.855 284.202L298.907 283.889C299.035 284.424 299.298 284.829 299.696 285.104C300.093 285.374 300.612 285.509 301.251 285.509C301.947 285.509 302.503 285.364 302.92 285.075C303.337 284.782 303.545 284.424 303.545 284.003C303.545 283.662 303.417 283.375 303.162 283.143C302.911 282.911 302.525 282.736 302.004 282.618L300.157 282.213C299.139 281.981 298.386 281.612 297.899 281.105C297.416 280.598 297.174 279.957 297.174 279.18C297.174 278.536 297.354 277.973 297.714 277.49C298.074 277.007 298.571 276.631 299.206 276.361C299.84 276.086 300.567 275.949 301.386 275.949C302.565 275.949 303.493 276.205 304.17 276.716C304.847 277.223 305.295 277.902 305.512 278.754ZM313.252 276.091V277.795H307.087V276.091H313.252ZM308.778 287V274.827C308.778 274.145 308.927 273.579 309.225 273.129C309.523 272.675 309.919 272.336 310.411 272.114C310.904 271.886 311.439 271.773 312.016 271.773C312.442 271.773 312.807 271.808 313.11 271.879C313.413 271.946 313.638 272.007 313.785 272.064L313.288 273.783C313.188 273.754 313.06 273.721 312.904 273.683C312.748 273.641 312.558 273.619 312.336 273.619C311.82 273.619 311.451 273.747 311.228 274.003C311.01 274.259 310.901 274.628 310.901 275.111V287H308.778ZM322.354 282.476V276.091H324.484V287H322.396V285.111H322.283C322.032 285.693 321.629 286.179 321.075 286.567C320.526 286.95 319.842 287.142 319.023 287.142C318.322 287.142 317.702 286.988 317.162 286.68C316.627 286.368 316.205 285.906 315.898 285.295C315.595 284.685 315.443 283.929 315.443 283.03V276.091H317.567V282.774C317.567 283.518 317.773 284.109 318.185 284.55C318.597 284.99 319.132 285.21 319.79 285.21C320.188 285.21 320.583 285.111 320.976 284.912C321.374 284.713 321.703 284.412 321.963 284.01C322.228 283.607 322.358 283.096 322.354 282.476ZM329.461 272.455V287H327.338V272.455H329.461ZM334.996 272.455L334.811 282.817H332.844L332.659 272.455H334.996ZM333.831 287.135C333.438 287.135 333.102 286.998 332.822 286.723C332.543 286.444 332.406 286.107 332.411 285.714C332.406 285.326 332.543 284.995 332.822 284.72C333.102 284.441 333.438 284.301 333.831 284.301C334.214 284.301 334.546 284.441 334.825 284.72C335.105 284.995 335.247 285.326 335.251 285.714C335.247 285.975 335.178 286.214 335.045 286.432C334.918 286.645 334.747 286.815 334.534 286.943C334.321 287.071 334.087 287.135 333.831 287.135Z" fill="#212632"/>
<path d="M133.968 73.9165H130.913C130.826 73.4156 130.665 72.9718 130.431 72.5852C130.197 72.1932 129.906 71.861 129.557 71.5888C129.209 71.3165 128.811 71.1123 128.365 70.9762C127.924 70.8346 127.447 70.7638 126.935 70.7638C126.026 70.7638 125.22 70.9925 124.518 71.4499C123.815 71.9019 123.265 72.5662 122.868 73.4428C122.47 74.314 122.272 75.3786 122.272 76.6364C122.272 77.916 122.47 78.9941 122.868 79.8707C123.271 80.742 123.821 81.4008 124.518 81.8473C125.22 82.2884 126.023 82.5089 126.927 82.5089C127.428 82.5089 127.896 82.4435 128.332 82.3129C128.773 82.1767 129.168 81.978 129.516 81.7166C129.87 81.4553 130.167 81.134 130.407 80.7528C130.652 80.3717 130.82 79.9361 130.913 79.446L133.968 79.4624C133.853 80.2573 133.606 81.0033 133.224 81.7003C132.849 82.3973 132.356 83.0125 131.746 83.5462C131.136 84.0743 130.423 84.4882 129.606 84.7876C128.789 85.0817 127.883 85.2287 126.886 85.2287C125.416 85.2287 124.104 84.8884 122.95 84.2077C121.795 83.5271 120.886 82.5443 120.222 81.2592C119.557 79.9742 119.225 78.4332 119.225 76.6364C119.225 74.834 119.56 73.2931 120.23 72.0135C120.9 70.7285 121.812 69.7456 122.966 69.065C124.12 68.3844 125.427 68.044 126.886 68.044C127.817 68.044 128.683 68.1747 129.484 68.4361C130.284 68.6974 130.997 69.0813 131.624 69.5877C132.25 70.0887 132.764 70.704 133.167 71.4336C133.576 72.1578 133.842 72.9854 133.968 73.9165ZM142.084 85.245C140.859 85.245 139.797 84.9755 138.899 84.4364C138 83.8974 137.303 83.1432 136.808 82.174C136.318 81.2048 136.073 80.0722 136.073 78.7763C136.073 77.4804 136.318 76.3451 136.808 75.3704C137.303 74.3957 138 73.6388 138.899 73.0998C139.797 72.5607 140.859 72.2912 142.084 72.2912C143.309 72.2912 144.371 72.5607 145.27 73.0998C146.168 73.6388 146.862 74.3957 147.352 75.3704C147.848 76.3451 148.096 77.4804 148.096 78.7763C148.096 80.0722 147.848 81.2048 147.352 82.174C146.862 83.1432 146.168 83.8974 145.27 84.4364C144.371 84.9755 143.309 85.245 142.084 85.245ZM142.101 82.8764C142.765 82.8764 143.32 82.694 143.767 82.3292C144.213 81.9589 144.545 81.4634 144.763 80.8427C144.986 80.2219 145.098 79.5304 145.098 78.7681C145.098 78.0004 144.986 77.3061 144.763 76.6854C144.545 76.0592 144.213 75.561 143.767 75.1907C143.32 74.8204 142.765 74.6353 142.101 74.6353C141.42 74.6353 140.854 74.8204 140.402 75.1907C139.955 75.561 139.62 76.0592 139.397 76.6854C139.179 77.3061 139.07 78.0004 139.07 78.7681C139.07 79.5304 139.179 80.2219 139.397 80.8427C139.62 81.4634 139.955 81.9589 140.402 82.3292C140.854 82.694 141.42 82.8764 142.101 82.8764ZM153.562 77.6491V85H150.605V72.4545H153.431V74.5863H153.578C153.867 73.8839 154.327 73.3258 154.958 72.9119C155.596 72.4981 156.382 72.2912 157.319 72.2912C158.185 72.2912 158.939 72.4763 159.581 72.8466C160.229 73.2169 160.73 73.7532 161.084 74.4556C161.444 75.158 161.621 76.0102 161.615 77.0121V85H158.658V77.4695C158.658 76.6309 158.441 75.9748 158.005 75.5011C157.575 75.0273 156.979 74.7905 156.216 74.7905C155.699 74.7905 155.239 74.9048 154.836 75.1335C154.438 75.3568 154.125 75.6808 153.897 76.1055C153.673 76.5302 153.562 77.0447 153.562 77.6491ZM170.975 72.4545V74.7415H163.559V72.4545H170.975ZM165.413 85V71.2702C165.413 70.4263 165.587 69.7238 165.936 69.163C166.29 68.6022 166.763 68.1829 167.357 67.9052C167.95 67.6275 168.609 67.4886 169.333 67.4886C169.845 67.4886 170.3 67.5295 170.697 67.6112C171.095 67.6928 171.389 67.7663 171.58 67.8317L170.991 70.1186C170.866 70.0805 170.708 70.0424 170.518 70.0043C170.327 69.9607 170.115 69.9389 169.881 69.9389C169.331 69.9389 168.941 70.0723 168.713 70.3391C168.489 70.6005 168.378 70.9762 168.378 71.4663V85H165.413ZM173.291 85V72.4545H176.247V85H173.291ZM174.777 70.674C174.309 70.674 173.906 70.5188 173.568 70.2085C173.231 69.8926 173.062 69.5142 173.062 69.0732C173.062 68.6267 173.231 68.2482 173.568 67.9379C173.906 67.622 174.309 67.4641 174.777 67.4641C175.251 67.4641 175.654 67.622 175.986 67.9379C176.324 68.2482 176.492 68.6267 176.492 69.0732C176.492 69.5142 176.324 69.8926 175.986 70.2085C175.654 70.5188 175.251 70.674 174.777 70.674ZM179.288 85V72.4545H182.155V74.5455H182.285C182.514 73.8213 182.906 73.2631 183.461 72.8711C184.022 72.4736 184.662 72.2749 185.381 72.2749C185.544 72.2749 185.727 72.283 185.928 72.2994C186.135 72.3103 186.306 72.3293 186.443 72.3565V75.0763C186.317 75.0328 186.119 74.9947 185.846 74.962C185.58 74.9239 185.321 74.9048 185.07 74.9048C184.531 74.9048 184.047 75.0219 183.617 75.256C183.192 75.4847 182.857 75.8033 182.612 76.2116C182.367 76.62 182.244 77.091 182.244 77.6246V85H179.288ZM188.407 85V72.4545H191.233V74.5863H191.38C191.641 73.8675 192.074 73.3067 192.679 72.9038C193.283 72.4954 194.004 72.2912 194.843 72.2912C195.692 72.2912 196.408 72.4981 196.991 72.9119C197.579 73.3203 197.993 73.8784 198.233 74.5863H198.363C198.641 73.8893 199.109 73.3339 199.768 72.9201C200.432 72.5008 201.219 72.2912 202.128 72.2912C203.283 72.2912 204.225 72.656 204.954 73.3857C205.684 74.1153 206.049 75.1798 206.049 76.5792V85H203.084V77.0366C203.084 76.2579 202.877 75.6889 202.463 75.3295C202.05 74.9647 201.543 74.7823 200.944 74.7823C200.231 74.7823 199.673 75.0056 199.27 75.4521C198.872 75.8931 198.674 76.4676 198.674 77.1754V85H195.774V76.9141C195.774 76.2661 195.578 75.7488 195.186 75.3622C194.799 74.9756 194.293 74.7823 193.667 74.7823C193.242 74.7823 192.855 74.8912 192.507 75.109C192.159 75.3214 191.881 75.6236 191.674 76.0156C191.467 76.4022 191.364 76.8542 191.364 77.3714V85H188.407ZM224.069 85.2532C223.274 85.2532 222.558 85.1116 221.921 84.8285C221.289 84.5399 220.788 84.1152 220.418 83.5543C220.053 82.9935 219.871 82.302 219.871 81.4798C219.871 80.7719 220.001 80.1866 220.263 79.7237C220.524 79.2609 220.881 78.8906 221.333 78.6129C221.785 78.3352 222.294 78.1256 222.86 77.984C223.432 77.837 224.022 77.7308 224.632 77.6655C225.367 77.5893 225.964 77.5212 226.421 77.4613C226.878 77.396 227.211 77.2979 227.417 77.1673C227.63 77.0311 227.736 76.8215 227.736 76.5384V76.4893C227.736 75.8741 227.554 75.3976 227.189 75.06C226.824 74.7224 226.298 74.5536 225.612 74.5536C224.888 74.5536 224.314 74.7115 223.889 75.0273C223.47 75.3432 223.187 75.7161 223.04 76.1463L220.279 75.7543C220.497 74.992 220.856 74.3549 221.357 73.843C221.858 73.3258 222.471 72.9392 223.195 72.6832C223.919 72.4219 224.719 72.2912 225.596 72.2912C226.2 72.2912 226.802 72.362 227.401 72.5036C228 72.6451 228.547 72.8793 229.043 73.206C229.538 73.5272 229.936 73.9656 230.235 74.521C230.54 75.0763 230.693 75.7706 230.693 76.6037V85H227.85V83.2766H227.752C227.573 83.6251 227.319 83.9518 226.993 84.2567C226.671 84.5562 226.266 84.7985 225.776 84.9837C225.291 85.1634 224.722 85.2532 224.069 85.2532ZM224.836 83.0806C225.43 83.0806 225.945 82.9635 226.38 82.7294C226.816 82.4898 227.151 82.174 227.385 81.782C227.624 81.3899 227.744 80.9625 227.744 80.4996V79.0213C227.652 79.0975 227.494 79.1683 227.27 79.2337C227.053 79.299 226.808 79.3562 226.535 79.4052C226.263 79.4542 225.994 79.4978 225.727 79.5359C225.46 79.574 225.229 79.6067 225.032 79.6339C224.591 79.6938 224.197 79.7918 223.848 79.9279C223.5 80.064 223.225 80.2546 223.023 80.4996C222.822 80.7392 222.721 81.0496 222.721 81.4308C222.721 81.9753 222.92 82.3864 223.317 82.6641C223.715 82.9418 224.221 83.0806 224.836 83.0806ZM236.622 77.6491V85H233.666V72.4545H236.492V74.5863H236.639C236.927 73.8839 237.387 73.3258 238.019 72.9119C238.656 72.4981 239.443 72.2912 240.379 72.2912C241.245 72.2912 241.999 72.4763 242.642 72.8466C243.29 73.2169 243.791 73.7532 244.145 74.4556C244.504 75.158 244.681 76.0102 244.676 77.0121V85H241.719V77.4695C241.719 76.6309 241.501 75.9748 241.066 75.5011C240.635 75.0273 240.039 74.7905 239.277 74.7905C238.76 74.7905 238.299 74.9048 237.896 75.1335C237.499 75.3568 237.186 75.6808 236.957 76.1055C236.734 76.5302 236.622 77.0447 236.622 77.6491ZM252.337 85.2205C251.351 85.2205 250.469 84.9673 249.691 84.4609C248.912 83.9545 248.297 83.2195 247.845 82.2557C247.393 81.2919 247.167 80.1212 247.167 78.7436C247.167 77.3497 247.395 76.1735 247.853 75.2152C248.316 74.2514 248.939 73.5245 249.723 73.0344C250.507 72.5389 251.381 72.2912 252.345 72.2912C253.08 72.2912 253.684 72.4164 254.158 72.6669C254.632 72.9119 255.008 73.2087 255.285 73.5572C255.563 73.9002 255.778 74.2242 255.931 74.5291H256.053V68.2727H259.018V85H256.11V83.0234H255.931C255.778 83.3284 255.558 83.6523 255.269 83.9954C254.98 84.333 254.599 84.6216 254.126 84.8612C253.652 85.1007 253.056 85.2205 252.337 85.2205ZM253.162 82.7947C253.788 82.7947 254.322 82.6259 254.763 82.2884C255.204 81.9453 255.539 81.4689 255.767 80.859C255.996 80.2492 256.11 79.5386 256.11 78.7273C256.11 77.916 255.996 77.2108 255.767 76.6119C255.544 76.0129 255.212 75.5473 254.771 75.2152C254.335 74.883 253.799 74.717 253.162 74.717C252.503 74.717 251.953 74.8885 251.512 75.2315C251.071 75.5746 250.739 76.0483 250.515 76.6527C250.292 77.2571 250.181 77.9486 250.181 78.7273C250.181 79.5114 250.292 80.2111 250.515 80.8263C250.744 81.4362 251.079 81.9181 251.52 82.272C251.967 82.6205 252.514 82.7947 253.162 82.7947ZM273.709 85V68.2727H279.982C281.267 68.2727 282.345 68.5123 283.217 68.9915C284.093 69.4706 284.755 70.1295 285.201 70.968C285.653 71.8011 285.879 72.7486 285.879 73.8104C285.879 74.883 285.653 75.8359 285.201 76.669C284.749 77.5021 284.082 78.1583 283.2 78.6374C282.318 79.1112 281.232 79.348 279.941 79.348H275.784V76.8569H279.533C280.284 76.8569 280.9 76.7262 281.379 76.4648C281.858 76.2035 282.212 75.8441 282.441 75.3867C282.675 74.9293 282.792 74.4039 282.792 73.8104C282.792 73.2169 282.675 72.6941 282.441 72.2422C282.212 71.7902 281.855 71.439 281.371 71.1886C280.891 70.9326 280.273 70.8047 279.517 70.8047H276.74V85H273.709ZM291.766 85.2532C290.971 85.2532 290.255 85.1116 289.618 84.8285C288.986 84.5399 288.485 84.1152 288.115 83.5543C287.75 82.9935 287.568 82.302 287.568 81.4798C287.568 80.7719 287.699 80.1866 287.96 79.7237C288.221 79.2609 288.578 78.8906 289.03 78.6129C289.482 78.3352 289.991 78.1256 290.557 77.984C291.129 77.837 291.72 77.7308 292.33 77.6655C293.065 77.5893 293.661 77.5212 294.118 77.4613C294.576 77.396 294.908 77.2979 295.115 77.1673C295.327 77.0311 295.433 76.8215 295.433 76.5384V76.4893C295.433 75.8741 295.251 75.3976 294.886 75.06C294.521 74.7224 293.996 74.5536 293.31 74.5536C292.585 74.5536 292.011 74.7115 291.586 75.0273C291.167 75.3432 290.884 75.7161 290.737 76.1463L287.976 75.7543C288.194 74.992 288.553 74.3549 289.054 73.843C289.555 73.3258 290.168 72.9392 290.892 72.6832C291.616 72.4219 292.417 72.2912 293.293 72.2912C293.898 72.2912 294.499 72.362 295.098 72.5036C295.697 72.6451 296.245 72.8793 296.74 73.206C297.236 73.5272 297.633 73.9656 297.933 74.521C298.237 75.0763 298.39 75.7706 298.39 76.6037V85H295.548V83.2766H295.45C295.27 83.6251 295.017 83.9518 294.69 84.2567C294.369 84.5562 293.963 84.7985 293.473 84.9837C292.988 85.1634 292.419 85.2532 291.766 85.2532ZM292.534 83.0806C293.127 83.0806 293.642 82.9635 294.077 82.7294C294.513 82.4898 294.848 82.174 295.082 81.782C295.322 81.3899 295.441 80.9625 295.441 80.4996V79.0213C295.349 79.0975 295.191 79.1683 294.968 79.2337C294.75 79.299 294.505 79.3562 294.233 79.4052C293.96 79.4542 293.691 79.4978 293.424 79.5359C293.157 79.574 292.926 79.6067 292.73 79.6339C292.289 79.6938 291.894 79.7918 291.545 79.9279C291.197 80.064 290.922 80.2546 290.721 80.4996C290.519 80.7392 290.418 81.0496 290.418 81.4308C290.418 81.9753 290.617 82.3864 291.015 82.6641C291.412 82.9418 291.918 83.0806 292.534 83.0806ZM302.751 89.7045C302.348 89.7045 301.975 89.6719 301.632 89.6065C301.295 89.5466 301.025 89.4759 300.824 89.3942L301.51 87.0909C301.94 87.2161 302.324 87.276 302.662 87.2706C302.999 87.2652 303.296 87.159 303.552 86.9521C303.813 86.7506 304.034 86.413 304.213 85.9393L304.467 85.2614L299.917 72.4545H303.054L305.945 81.929H306.076L308.975 72.4545H312.12L307.097 86.5192C306.862 87.1835 306.552 87.7525 306.165 88.2262C305.779 88.7054 305.305 89.0702 304.744 89.3207C304.189 89.5766 303.525 89.7045 302.751 89.7045Z" fill="#3D61D8"/>
<circle cx="222.093" cy="200.093" r="45.2056" fill="#F0F1F4"/>
<path d="M185.125 174.527C179.363 182.875 176.565 192.912 177.178 203.037C177.791 213.161 181.779 222.788 188.504 230.38C195.23 237.972 204.307 243.092 214.283 244.92C224.26 246.749 234.562 245.181 243.543 240.468C252.525 235.755 259.667 228.168 263.831 218.919C267.994 209.67 268.938 199.292 266.512 189.444C264.085 179.595 258.429 170.844 250.445 164.588C242.461 158.332 232.612 154.931 222.469 154.93C219.687 154.93 216.912 155.181 214.176 155.68" stroke="#303441" stroke-linecap="round" stroke-linejoin="round"/>
<path d="M192.859 165.954C191.335 167.273 189.898 168.69 188.558 170.195" stroke="#303441" stroke-linecap="round" stroke-linejoin="round"/>
<path d="M257.916 215.584C266.247 196.025 257.144 173.415 237.584 165.084C218.025 156.753 195.415 165.856 187.084 185.416C178.753 204.975 187.856 227.585 207.416 235.916C226.975 244.247 249.585 235.144 257.916 215.584Z" fill="#F1AD59"/>
<path d="M204.825 201.155L218.238 213.125L240.175 188.717" stroke="white" stroke-width="8" stroke-linecap="round" stroke-linejoin="round"/>
<g filter="url(#filter1_d_254_896)">
<rect x="29" y="10" width="374" height="332" rx="22" fill="white"/>
</g>
<path d="M108.881 223.344V221.455H120.138V223.344H115.599V236H113.412V223.344H108.881ZM121.322 236V225.091H123.375V226.824H123.488C123.687 226.237 124.038 225.775 124.539 225.439C125.046 225.098 125.619 224.928 126.258 224.928C126.391 224.928 126.547 224.932 126.727 224.942C126.912 224.951 127.056 224.963 127.16 224.977V227.009C127.075 226.985 126.923 226.959 126.706 226.93C126.488 226.897 126.27 226.881 126.052 226.881C125.55 226.881 125.103 226.987 124.71 227.2C124.322 227.409 124.014 227.7 123.787 228.074C123.559 228.443 123.446 228.865 123.446 229.338V236H121.322ZM132.075 236.241C131.384 236.241 130.759 236.114 130.2 235.858C129.641 235.598 129.199 235.221 128.872 234.729C128.55 234.236 128.389 233.633 128.389 232.918C128.389 232.302 128.507 231.795 128.744 231.398C128.981 231 129.3 230.685 129.703 230.453C130.105 230.221 130.555 230.046 131.052 229.928C131.549 229.809 132.056 229.719 132.572 229.658C133.225 229.582 133.756 229.52 134.163 229.473C134.57 229.421 134.866 229.338 135.051 229.224C135.235 229.111 135.328 228.926 135.328 228.67V228.621C135.328 228 135.153 227.52 134.802 227.179C134.457 226.838 133.94 226.668 133.254 226.668C132.539 226.668 131.975 226.826 131.564 227.143C131.156 227.456 130.875 227.804 130.718 228.188L128.723 227.733C128.959 227.07 129.305 226.535 129.76 226.128C130.219 225.716 130.747 225.418 131.343 225.233C131.94 225.044 132.567 224.949 133.225 224.949C133.661 224.949 134.123 225.001 134.61 225.105C135.103 225.205 135.562 225.389 135.988 225.659C136.419 225.929 136.772 226.315 137.047 226.817C137.321 227.314 137.458 227.96 137.458 228.756V236H135.385V234.509H135.299C135.162 234.783 134.956 235.053 134.681 235.318C134.407 235.583 134.054 235.804 133.623 235.979C133.192 236.154 132.676 236.241 132.075 236.241ZM132.537 234.537C133.124 234.537 133.626 234.421 134.042 234.189C134.464 233.957 134.783 233.654 135.001 233.28C135.224 232.901 135.335 232.496 135.335 232.065V230.659C135.259 230.735 135.112 230.806 134.895 230.872C134.681 230.934 134.438 230.988 134.163 231.036C133.888 231.078 133.621 231.118 133.36 231.156C133.1 231.189 132.882 231.218 132.707 231.241C132.295 231.294 131.919 231.381 131.578 231.504C131.242 231.627 130.972 231.805 130.768 232.037C130.569 232.264 130.47 232.567 130.47 232.946C130.47 233.472 130.664 233.869 131.052 234.139C131.44 234.404 131.935 234.537 132.537 234.537ZM142.411 229.523V236H140.287V225.091H142.325V226.866H142.46C142.711 226.289 143.104 225.825 143.639 225.474C144.179 225.124 144.858 224.949 145.678 224.949C146.421 224.949 147.072 225.105 147.631 225.418C148.189 225.725 148.623 226.185 148.93 226.795C149.238 227.406 149.392 228.161 149.392 229.061V236H147.268V229.317C147.268 228.526 147.063 227.908 146.651 227.463C146.239 227.013 145.673 226.788 144.953 226.788C144.461 226.788 144.023 226.895 143.639 227.108C143.26 227.321 142.96 227.634 142.737 228.045C142.519 228.453 142.411 228.945 142.411 229.523ZM160.415 227.754L158.49 228.095C158.41 227.849 158.282 227.615 158.107 227.392C157.936 227.17 157.704 226.987 157.411 226.845C157.117 226.703 156.75 226.632 156.31 226.632C155.708 226.632 155.206 226.767 154.804 227.037C154.402 227.302 154.2 227.645 154.2 228.067C154.2 228.431 154.335 228.725 154.605 228.947C154.875 229.17 155.311 229.352 155.912 229.494L157.645 229.892C158.649 230.124 159.397 230.482 159.889 230.964C160.382 231.447 160.628 232.075 160.628 232.847C160.628 233.5 160.438 234.082 160.06 234.594C159.686 235.1 159.162 235.498 158.49 235.787C157.822 236.076 157.048 236.22 156.168 236.22C154.946 236.22 153.949 235.96 153.178 235.439C152.406 234.913 151.932 234.168 151.757 233.202L153.81 232.889C153.938 233.424 154.2 233.829 154.598 234.104C154.996 234.374 155.514 234.509 156.153 234.509C156.849 234.509 157.406 234.364 157.822 234.075C158.239 233.782 158.447 233.424 158.447 233.003C158.447 232.662 158.32 232.375 158.064 232.143C157.813 231.911 157.427 231.736 156.906 231.618L155.06 231.213C154.042 230.981 153.289 230.612 152.801 230.105C152.318 229.598 152.077 228.957 152.077 228.18C152.077 227.536 152.257 226.973 152.616 226.49C152.976 226.007 153.473 225.631 154.108 225.361C154.742 225.086 155.469 224.949 156.288 224.949C157.467 224.949 158.395 225.205 159.072 225.716C159.75 226.223 160.197 226.902 160.415 227.754ZM166.137 236.241C165.446 236.241 164.821 236.114 164.262 235.858C163.704 235.598 163.261 235.221 162.934 234.729C162.612 234.236 162.451 233.633 162.451 232.918C162.451 232.302 162.57 231.795 162.806 231.398C163.043 231 163.363 230.685 163.765 230.453C164.168 230.221 164.618 230.046 165.115 229.928C165.612 229.809 166.118 229.719 166.635 229.658C167.288 229.582 167.818 229.52 168.225 229.473C168.633 229.421 168.929 229.338 169.113 229.224C169.298 229.111 169.39 228.926 169.39 228.67V228.621C169.39 228 169.215 227.52 168.865 227.179C168.519 226.838 168.003 226.668 167.316 226.668C166.601 226.668 166.038 226.826 165.626 227.143C165.219 227.456 164.937 227.804 164.781 228.188L162.785 227.733C163.022 227.07 163.368 226.535 163.822 226.128C164.281 225.716 164.809 225.418 165.406 225.233C166.002 225.044 166.63 224.949 167.288 224.949C167.724 224.949 168.185 225.001 168.673 225.105C169.165 225.205 169.625 225.389 170.051 225.659C170.482 225.929 170.834 226.315 171.109 226.817C171.384 227.314 171.521 227.96 171.521 228.756V236H169.447V234.509H169.362C169.225 234.783 169.019 235.053 168.744 235.318C168.469 235.583 168.117 235.804 167.686 235.979C167.255 236.154 166.739 236.241 166.137 236.241ZM166.599 234.537C167.186 234.537 167.688 234.421 168.105 234.189C168.526 233.957 168.846 233.654 169.064 233.28C169.286 232.901 169.397 232.496 169.397 232.065V230.659C169.322 230.735 169.175 230.806 168.957 230.872C168.744 230.934 168.5 230.988 168.225 231.036C167.951 231.078 167.683 231.118 167.423 231.156C167.163 231.189 166.945 231.218 166.77 231.241C166.358 231.294 165.981 231.381 165.64 231.504C165.304 231.627 165.034 231.805 164.831 232.037C164.632 232.264 164.532 232.567 164.532 232.946C164.532 233.472 164.726 233.869 165.115 234.139C165.503 234.404 165.998 234.537 166.599 234.537ZM178.945 236.22C177.889 236.22 176.98 235.981 176.217 235.503C175.46 235.02 174.877 234.355 174.47 233.507C174.063 232.66 173.859 231.689 173.859 230.595C173.859 229.487 174.068 228.509 174.484 227.662C174.901 226.81 175.488 226.144 176.246 225.666C177.003 225.188 177.896 224.949 178.923 224.949C179.752 224.949 180.491 225.103 181.139 225.411C181.788 225.714 182.311 226.14 182.709 226.689C183.111 227.238 183.35 227.88 183.426 228.614H181.359C181.246 228.102 180.985 227.662 180.578 227.293C180.176 226.923 179.636 226.739 178.959 226.739C178.367 226.739 177.848 226.895 177.403 227.207C176.963 227.515 176.62 227.955 176.374 228.528C176.127 229.097 176.004 229.769 176.004 230.545C176.004 231.341 176.125 232.027 176.366 232.605C176.608 233.183 176.949 233.63 177.389 233.947C177.834 234.265 178.357 234.423 178.959 234.423C179.361 234.423 179.726 234.35 180.053 234.203C180.384 234.052 180.661 233.836 180.884 233.557C181.111 233.277 181.269 232.941 181.359 232.548H183.426C183.35 233.254 183.121 233.884 182.737 234.438C182.354 234.991 181.84 235.427 181.196 235.744C180.557 236.062 179.806 236.22 178.945 236.22ZM190.789 225.091V226.795H184.831V225.091H190.789ZM186.429 222.477H188.552V232.797C188.552 233.209 188.614 233.519 188.737 233.727C188.86 233.931 189.019 234.071 189.213 234.146C189.412 234.217 189.627 234.253 189.859 234.253C190.029 234.253 190.179 234.241 190.306 234.217C190.434 234.194 190.534 234.175 190.605 234.161L190.988 235.915C190.865 235.962 190.69 236.009 190.463 236.057C190.235 236.109 189.951 236.137 189.61 236.142C189.052 236.152 188.531 236.052 188.048 235.844C187.565 235.635 187.174 235.313 186.876 234.878C186.578 234.442 186.429 233.895 186.429 233.237V222.477ZM193.138 236V225.091H195.262V236H193.138ZM194.211 223.408C193.842 223.408 193.524 223.285 193.259 223.038C192.999 222.787 192.869 222.489 192.869 222.143C192.869 221.793 192.999 221.495 193.259 221.249C193.524 220.998 193.842 220.872 194.211 220.872C194.58 220.872 194.895 220.998 195.156 221.249C195.421 221.495 195.553 221.793 195.553 222.143C195.553 222.489 195.421 222.787 195.156 223.038C194.895 223.285 194.58 223.408 194.211 223.408ZM202.714 236.22C201.691 236.22 200.799 235.986 200.037 235.517C199.274 235.048 198.682 234.393 198.261 233.55C197.84 232.707 197.629 231.722 197.629 230.595C197.629 229.464 197.84 228.474 198.261 227.626C198.682 226.779 199.274 226.121 200.037 225.652C200.799 225.183 201.691 224.949 202.714 224.949C203.737 224.949 204.629 225.183 205.392 225.652C206.154 226.121 206.746 226.779 207.167 227.626C207.589 228.474 207.799 229.464 207.799 230.595C207.799 231.722 207.589 232.707 207.167 233.55C206.746 234.393 206.154 235.048 205.392 235.517C204.629 235.986 203.737 236.22 202.714 236.22ZM202.721 234.438C203.384 234.438 203.933 234.262 204.369 233.912C204.805 233.562 205.127 233.095 205.335 232.513C205.548 231.93 205.654 231.289 205.654 230.588C205.654 229.892 205.548 229.253 205.335 228.67C205.127 228.083 204.805 227.612 204.369 227.257C203.933 226.902 203.384 226.724 202.721 226.724C202.054 226.724 201.5 226.902 201.059 227.257C200.624 227.612 200.299 228.083 200.086 228.67C199.878 229.253 199.774 229.892 199.774 230.588C199.774 231.289 199.878 231.93 200.086 232.513C200.299 233.095 200.624 233.562 201.059 233.912C201.5 234.262 202.054 234.438 202.721 234.438ZM212.293 229.523V236H210.17V225.091H212.208V226.866H212.343C212.594 226.289 212.987 225.825 213.522 225.474C214.062 225.124 214.741 224.949 215.56 224.949C216.304 224.949 216.955 225.105 217.513 225.418C218.072 225.725 218.505 226.185 218.813 226.795C219.121 227.406 219.275 228.161 219.275 229.061V236H217.151V229.317C217.151 228.526 216.945 227.908 216.533 227.463C216.121 227.013 215.556 226.788 214.836 226.788C214.344 226.788 213.906 226.895 213.522 227.108C213.143 227.321 212.843 227.634 212.62 228.045C212.402 228.453 212.293 228.945 212.293 229.523ZM235.52 225.276C235.444 224.603 235.131 224.082 234.582 223.713C234.033 223.339 233.342 223.152 232.508 223.152C231.912 223.152 231.395 223.247 230.96 223.436C230.524 223.621 230.186 223.876 229.944 224.203C229.708 224.525 229.589 224.892 229.589 225.304C229.589 225.65 229.67 225.948 229.831 226.199C229.996 226.45 230.212 226.661 230.477 226.831C230.747 226.997 231.036 227.136 231.343 227.25C231.651 227.359 231.947 227.449 232.231 227.52L233.652 227.889C234.116 228.003 234.592 228.157 235.079 228.351C235.567 228.545 236.019 228.801 236.436 229.118C236.852 229.435 237.189 229.828 237.444 230.297C237.705 230.766 237.835 231.327 237.835 231.98C237.835 232.804 237.622 233.536 237.196 234.175C236.774 234.814 236.161 235.318 235.356 235.688C234.556 236.057 233.588 236.241 232.451 236.241C231.362 236.241 230.42 236.069 229.625 235.723C228.829 235.377 228.207 234.887 227.757 234.253C227.307 233.614 227.058 232.856 227.011 231.98H229.213C229.255 232.506 229.426 232.944 229.724 233.294C230.027 233.64 230.413 233.898 230.882 234.068C231.355 234.234 231.874 234.317 232.437 234.317C233.057 234.317 233.609 234.22 234.092 234.026C234.58 233.827 234.963 233.552 235.243 233.202C235.522 232.847 235.662 232.432 235.662 231.959C235.662 231.528 235.538 231.175 235.292 230.901C235.051 230.626 234.722 230.399 234.305 230.219C233.893 230.039 233.427 229.88 232.906 229.743L231.187 229.274C230.022 228.957 229.099 228.491 228.417 227.875C227.74 227.259 227.402 226.445 227.402 225.432C227.402 224.594 227.629 223.862 228.083 223.237C228.538 222.612 229.154 222.127 229.93 221.781C230.707 221.431 231.583 221.256 232.558 221.256C233.543 221.256 234.412 221.429 235.164 221.774C235.922 222.12 236.519 222.596 236.954 223.202C237.39 223.803 237.617 224.494 237.636 225.276H235.52ZM247.197 231.476V225.091H249.328V236H247.24V234.111H247.126C246.875 234.693 246.473 235.179 245.919 235.567C245.37 235.95 244.686 236.142 243.866 236.142C243.166 236.142 242.545 235.988 242.006 235.68C241.471 235.368 241.049 234.906 240.741 234.295C240.438 233.685 240.287 232.929 240.287 232.03V225.091H242.411V231.774C242.411 232.518 242.616 233.109 243.028 233.55C243.44 233.99 243.975 234.21 244.634 234.21C245.031 234.21 245.427 234.111 245.82 233.912C246.217 233.713 246.546 233.412 246.807 233.01C247.072 232.607 247.202 232.096 247.197 231.476ZM256.777 236.22C255.721 236.22 254.812 235.981 254.049 235.503C253.292 235.02 252.709 234.355 252.302 233.507C251.895 232.66 251.691 231.689 251.691 230.595C251.691 229.487 251.9 228.509 252.316 227.662C252.733 226.81 253.32 226.144 254.078 225.666C254.835 225.188 255.728 224.949 256.755 224.949C257.584 224.949 258.323 225.103 258.971 225.411C259.62 225.714 260.143 226.14 260.541 226.689C260.943 227.238 261.182 227.88 261.258 228.614H259.191C259.078 228.102 258.817 227.662 258.41 227.293C258.008 226.923 257.468 226.739 256.791 226.739C256.199 226.739 255.681 226.895 255.235 227.207C254.795 227.515 254.452 227.955 254.206 228.528C253.959 229.097 253.836 229.769 253.836 230.545C253.836 231.341 253.957 232.027 254.199 232.605C254.44 233.183 254.781 233.63 255.221 233.947C255.666 234.265 256.19 234.423 256.791 234.423C257.193 234.423 257.558 234.35 257.885 234.203C258.216 234.052 258.493 233.836 258.716 233.557C258.943 233.277 259.101 232.941 259.191 232.548H261.258C261.182 233.254 260.953 233.884 260.569 234.438C260.186 234.991 259.672 235.427 259.028 235.744C258.389 236.062 257.638 236.22 256.777 236.22ZM268.124 236.22C267.068 236.22 266.159 235.981 265.397 235.503C264.639 235.02 264.057 234.355 263.65 233.507C263.243 232.66 263.039 231.689 263.039 230.595C263.039 229.487 263.247 228.509 263.664 227.662C264.081 226.81 264.668 226.144 265.425 225.666C266.183 225.188 267.076 224.949 268.103 224.949C268.932 224.949 269.67 225.103 270.319 225.411C270.968 225.714 271.491 226.14 271.888 226.689C272.291 227.238 272.53 227.88 272.606 228.614H270.539C270.425 228.102 270.165 227.662 269.758 227.293C269.355 226.923 268.816 226.739 268.138 226.739C267.547 226.739 267.028 226.895 266.583 227.207C266.143 227.515 265.799 227.955 265.553 228.528C265.307 229.097 265.184 229.769 265.184 230.545C265.184 231.341 265.305 232.027 265.546 232.605C265.788 233.183 266.129 233.63 266.569 233.947C267.014 234.265 267.537 234.423 268.138 234.423C268.541 234.423 268.906 234.35 269.232 234.203C269.564 234.052 269.841 233.836 270.063 233.557C270.29 233.277 270.449 232.941 270.539 232.548H272.606C272.53 233.254 272.3 233.884 271.917 234.438C271.533 234.991 271.02 235.427 270.376 235.744C269.737 236.062 268.986 236.22 268.124 236.22ZM279.578 236.22C278.504 236.22 277.578 235.991 276.801 235.531C276.03 235.067 275.433 234.416 275.012 233.578C274.595 232.735 274.387 231.748 274.387 230.616C274.387 229.499 274.595 228.514 275.012 227.662C275.433 226.81 276.02 226.144 276.773 225.666C277.531 225.188 278.416 224.949 279.429 224.949C280.045 224.949 280.641 225.051 281.219 225.254C281.797 225.458 282.315 225.777 282.775 226.213C283.234 226.649 283.596 227.214 283.861 227.911C284.126 228.602 284.259 229.442 284.259 230.432V231.185H275.587V229.594H282.178C282.178 229.035 282.064 228.54 281.837 228.109C281.61 227.674 281.29 227.33 280.878 227.08C280.471 226.829 279.993 226.703 279.444 226.703C278.847 226.703 278.326 226.85 277.881 227.143C277.441 227.432 277.1 227.811 276.858 228.28C276.622 228.744 276.503 229.248 276.503 229.793V231.036C276.503 231.765 276.631 232.385 276.887 232.896C277.147 233.408 277.509 233.798 277.973 234.068C278.437 234.333 278.98 234.466 279.6 234.466C280.002 234.466 280.369 234.409 280.701 234.295C281.032 234.177 281.319 234.002 281.56 233.77C281.801 233.538 281.986 233.251 282.114 232.911L284.124 233.273C283.963 233.865 283.674 234.383 283.257 234.828C282.846 235.268 282.327 235.612 281.702 235.858C281.082 236.099 280.374 236.22 279.578 236.22ZM294.79 227.754L292.865 228.095C292.785 227.849 292.657 227.615 292.482 227.392C292.311 227.17 292.079 226.987 291.786 226.845C291.492 226.703 291.125 226.632 290.685 226.632C290.083 226.632 289.581 226.767 289.179 227.037C288.777 227.302 288.575 227.645 288.575 228.067C288.575 228.431 288.71 228.725 288.98 228.947C289.25 229.17 289.686 229.352 290.287 229.494L292.02 229.892C293.024 230.124 293.772 230.482 294.264 230.964C294.757 231.447 295.003 232.075 295.003 232.847C295.003 233.5 294.813 234.082 294.435 234.594C294.061 235.1 293.537 235.498 292.865 235.787C292.197 236.076 291.423 236.22 290.543 236.22C289.321 236.22 288.324 235.96 287.553 235.439C286.781 234.913 286.307 234.168 286.132 233.202L288.185 232.889C288.313 233.424 288.575 233.829 288.973 234.104C289.371 234.374 289.889 234.509 290.528 234.509C291.224 234.509 291.781 234.364 292.197 234.075C292.614 233.782 292.822 233.424 292.822 233.003C292.822 232.662 292.695 232.375 292.439 232.143C292.188 231.911 291.802 231.736 291.281 231.618L289.435 231.213C288.417 230.981 287.664 230.612 287.176 230.105C286.693 229.598 286.452 228.957 286.452 228.18C286.452 227.536 286.632 226.973 286.991 226.49C287.351 226.007 287.848 225.631 288.483 225.361C289.117 225.086 289.844 224.949 290.663 224.949C291.842 224.949 292.77 225.205 293.447 225.716C294.125 226.223 294.572 226.902 294.79 227.754ZM305.512 227.754L303.588 228.095C303.507 227.849 303.379 227.615 303.204 227.392C303.034 227.17 302.802 226.987 302.508 226.845C302.215 226.703 301.848 226.632 301.407 226.632C300.806 226.632 300.304 226.767 299.902 227.037C299.499 227.302 299.298 227.645 299.298 228.067C299.298 228.431 299.433 228.725 299.703 228.947C299.973 229.17 300.408 229.352 301.01 229.494L302.743 229.892C303.746 230.124 304.494 230.482 304.987 230.964C305.479 231.447 305.725 232.075 305.725 232.847C305.725 233.5 305.536 234.082 305.157 234.594C304.783 235.1 304.26 235.498 303.588 235.787C302.92 236.076 302.146 236.22 301.265 236.22C300.044 236.22 299.047 235.96 298.275 235.439C297.503 234.913 297.03 234.168 296.855 233.202L298.907 232.889C299.035 233.424 299.298 233.829 299.696 234.104C300.093 234.374 300.612 234.509 301.251 234.509C301.947 234.509 302.503 234.364 302.92 234.075C303.337 233.782 303.545 233.424 303.545 233.003C303.545 232.662 303.417 232.375 303.162 232.143C302.911 231.911 302.525 231.736 302.004 231.618L300.157 231.213C299.139 230.981 298.386 230.612 297.899 230.105C297.416 229.598 297.174 228.957 297.174 228.18C297.174 227.536 297.354 226.973 297.714 226.49C298.074 226.007 298.571 225.631 299.206 225.361C299.84 225.086 300.567 224.949 301.386 224.949C302.565 224.949 303.493 225.205 304.17 225.716C304.847 226.223 305.295 226.902 305.512 227.754ZM313.252 225.091V226.795H307.087V225.091H313.252ZM308.778 236V223.827C308.778 223.145 308.927 222.579 309.225 222.129C309.523 221.675 309.919 221.336 310.411 221.114C310.904 220.886 311.439 220.773 312.016 220.773C312.442 220.773 312.807 220.808 313.11 220.879C313.413 220.946 313.638 221.007 313.785 221.064L313.288 222.783C313.188 222.754 313.06 222.721 312.904 222.683C312.748 222.641 312.558 222.619 312.336 222.619C311.82 222.619 311.451 222.747 311.228 223.003C311.01 223.259 310.901 223.628 310.901 224.111V236H308.778ZM322.354 231.476V225.091H324.484V236H322.396V234.111H322.283C322.032 234.693 321.629 235.179 321.075 235.567C320.526 235.95 319.842 236.142 319.023 236.142C318.322 236.142 317.702 235.988 317.162 235.68C316.627 235.368 316.205 234.906 315.898 234.295C315.595 233.685 315.443 232.929 315.443 232.03V225.091H317.567V231.774C317.567 232.518 317.773 233.109 318.185 233.55C318.597 233.99 319.132 234.21 319.79 234.21C320.188 234.21 320.583 234.111 320.976 233.912C321.374 233.713 321.703 233.412 321.963 233.01C322.228 232.607 322.358 232.096 322.354 231.476ZM329.461 221.455V236H327.338V221.455H329.461ZM334.996 221.455L334.811 231.817H332.844L332.659 221.455H334.996ZM333.831 236.135C333.438 236.135 333.102 235.998 332.822 235.723C332.543 235.444 332.406 235.107 332.411 234.714C332.406 234.326 332.543 233.995 332.822 233.72C333.102 233.441 333.438 233.301 333.831 233.301C334.214 233.301 334.546 233.441 334.825 233.72C335.105 233.995 335.247 234.326 335.251 234.714C335.247 234.975 335.178 235.214 335.045 235.432C334.918 235.645 334.747 235.815 334.534 235.943C334.321 236.071 334.087 236.135 333.831 236.135Z" fill="#212632"/>
<circle cx="222.093" cy="149.093" r="45.2056" fill="#F0F1F4"/>
<path d="M185.125 123.527C179.363 131.875 176.565 141.912 177.178 152.037C177.791 162.161 181.779 171.788 188.504 179.38C195.23 186.972 204.307 192.092 214.283 193.92C224.26 195.749 234.562 194.181 243.543 189.468C252.525 184.755 259.667 177.168 263.831 167.919C267.994 158.67 268.938 148.292 266.512 138.444C264.085 128.595 258.429 119.844 250.445 113.588C242.461 107.332 232.612 103.931 222.469 103.93C219.687 103.93 216.912 104.181 214.176 104.68" stroke="#303441" stroke-linecap="round" stroke-linejoin="round"/>
<path d="M192.859 114.954C191.335 116.273 189.898 117.69 188.558 119.195" stroke="#303441" stroke-linecap="round" stroke-linejoin="round"/>
<path d="M257.916 164.584C266.247 145.025 257.144 122.415 237.584 114.084C218.025 105.753 195.415 114.856 187.084 134.416C178.753 153.975 187.856 176.585 207.416 184.916C226.975 193.247 249.585 184.144 257.916 164.584Z" fill="#F1AD59"/>
<path d="M204.825 150.155L218.238 162.125L240.175 137.717" stroke="white" stroke-width="8" stroke-linecap="round" stroke-linejoin="round"/>
<defs>
<filter id="filter0_d_254_896" x="12" y="23" width="432" height="390" filterUnits="userSpaceOnUse" color-interpolation-filters="sRGB">
<feFlood flood-opacity="0" result="BackgroundImageFix"/>
<feColorMatrix in="SourceAlpha" type="matrix" values="0 0 0 0 0 0 0 0 0 0 0 0 0 0 0 0 0 0 127 0" result="hardAlpha"/>
<feOffset dy="19"/>
<feGaussianBlur stdDeviation="14.5"/>
<feComposite in2="hardAlpha" operator="out"/>
<feColorMatrix type="matrix" values="0 0 0 0 0 0 0 0 0 0 0 0 0 0 0 0 0 0 0.06 0"/>
<feBlend mode="normal" in2="BackgroundImageFix" result="effect1_dropShadow_254_896"/>
<feBlend mode="normal" in="SourceGraphic" in2="effect1_dropShadow_254_896" result="shape"/>
</filter>
<filter id="filter1_d_254_896" x="0" y="0" width="432" height="390" filterUnits="userSpaceOnUse" color-interpolation-filters="sRGB">
<feFlood flood-opacity="0" result="BackgroundImageFix"/>
<feColorMatrix in="SourceAlpha" type="matrix" values="0 0 0 0 0 0 0 0 0 0 0 0 0 0 0 0 0 0 127 0" result="hardAlpha"/>
<feOffset dy="19"/>
<feGaussianBlur stdDeviation="14.5"/>
<feComposite in2="hardAlpha" operator="out"/>
<feColorMatrix type="matrix" values="0 0 0 0 0 0 0 0 0 0 0 0 0 0 0 0 0 0 0.06 0"/>
<feBlend mode="normal" in2="BackgroundImageFix" result="effect1_dropShadow_254_896"/>
<feBlend mode="normal" in="SourceGraphic" in2="effect1_dropShadow_254_896" result="shape"/>
</filter>
</defs>
</svg>
